<?xml version="1.0" encoding="UTF-8"?>
<svg id="Layer_2" data-name="Layer 2" xmlns="http://www.w3.org/2000/svg" viewBox="0 0 340.04 81.53">
  <defs>
    <style>
      .cls-1 {
        fill: #001f4b;
      }
    </style>
  </defs>
  <g id="Layer_1-2" data-name="Layer 1">
    <g>
      <g>
        <path class="cls-1" d="M167.9,37.38l-9.52-2.12c-2.64-.6-4.69-1.49-6.13-2.67-1.45-1.18-2.17-2.72-2.17-4.63,0-2.19.97-4.01,2.91-5.47,1.94-1.46,4.51-2.2,7.72-2.2s6.01.86,7.99,2.59c1.75,1.53,2.79,3.39,3.13,5.58.08.49.5.85,1,.83l8.71-.39c.56-.03.99-.53.92-1.08-.4-3.16-1.45-5.92-3.15-8.27-1.89-2.61-4.43-4.63-7.64-6.06-3.21-1.43-6.91-2.14-11.11-2.14s-8.09.71-11.37,2.14c-3.28,1.43-5.83,3.41-7.64,5.95-1.82,2.54-2.72,5.48-2.72,8.83,0,4.16,1.36,7.58,4.07,10.26,2.71,2.68,6.72,4.62,12,5.82l9.41,2.06c2.54.56,4.52,1.43,5.95,2.59,1.43,1.16,2.14,2.7,2.14,4.6,0,2.22-1.04,4.06-3.12,5.53-2.08,1.46-4.92,2.2-8.52,2.2s-6.43-.79-8.51-2.38c-1.89-1.44-3.1-3.48-3.62-6.11-.09-.47-.51-.8-.99-.78l-9.16.39c-.57.02-1,.54-.92,1.1.49,3.45,1.7,6.38,3.6,8.78,2.1,2.65,4.85,4.64,8.25,5.98,3.4,1.34,7.24,2.01,11.5,2.01s8.39-.71,11.85-2.12c3.46-1.41,6.16-3.42,8.12-6.03,1.96-2.61,2.94-5.69,2.94-9.26,0-4.09-1.29-7.4-3.86-9.94-2.57-2.54-6.59-4.41-12.06-5.61Z"/>
        <path class="cls-1" d="M242.33,59.71c-1.68,0-3.03-1.36-3.03-3.04v-26.11c0-3.13-.56-5.9-1.67-8.27-.08-.17-.17-.33-.24-.5-1.1-2.16-2.57-3.99-4.46-5.48-1.46-1.14-3.09-2.08-4.9-2.83-.71-.3-1.48-.56-2.25-.79-.24-.08-.5-.15-.76-.21-2.51-.67-5.2-1-8.09-1-4.41,0-8.31.71-11.71,2.14s-6.15,3.44-8.23,6.02c-1.87,2.32-3.08,5.05-3.64,8.16-.1.57.32,1.1.9,1.13l9.05.48c.47.02.88-.3.99-.76.32-1.31.94-2.51,1.85-3.61,1.1-1.32,2.54-2.39,4.37-3.18,1.81-.79,3.91-1.19,6.31-1.19.56,0,1.11.03,1.64.08,1.6.14,3.01.49,4.24,1.03.09.03.17.08.24.11,1.7.81,2.98,1.93,3.86,3.36.62,1.02,1.03,2.16,1.22,3.42.08.5.11,1.02.11,1.57v.43c0,.35-.03.68-.11.99-.17.84-.59,1.48-1.26,1.92-.93.61-2.4,1.03-4.47,1.29-2.07.27-4.84.61-8.34,1.03-2.81.32-5.55.79-8.21,1.43-2.66.64-5.05,1.55-7.15,2.75-2.1,1.2-3.77,2.83-5.02,4.9-1.25,2.05-1.87,4.72-1.87,7.96,0,3.73.85,6.88,2.56,9.42,1.72,2.54,4.05,4.44,6.98,5.73,2.95,1.28,6.28,1.93,10.02,1.93,3.18,0,5.86-.43,8.06-1.28,2.21-.84,4-1.95,5.4-3.33,1.38-1.37,2.48-2.8,3.26-4.27h.26c0,4.38,3.55,7.92,7.92,7.92h8.21c.53,0,.97-.43.97-.97v-7.42c0-.53-.43-.97-.97-.97h-2.03ZM228.19,48.07c0,.71-.06,1.41-.17,2.1-.23,1.51-.71,2.92-1.45,4.27-1.08,1.96-2.71,3.53-4.87,4.73-2.18,1.2-4.88,1.79-8.12,1.79-2.14,0-4.03-.3-5.63-.93-1.61-.61-2.86-1.51-3.73-2.66-.88-1.17-1.32-2.57-1.32-4.23,0-1.95.53-3.5,1.61-4.68,1.06-1.19,2.49-2.1,4.27-2.75,1.78-.65,3.7-1.11,5.75-1.4,1.37-.18,2.77-.38,4.2-.61,1.43-.23,2.78-.47,4.08-.71,1.28-.24,2.4-.5,3.35-.79.61-.19,1.17-.44,1.55-.63.22-.11.48.05.48.29v6.21Z"/>
        <path class="cls-1" d="M336.68,25.48c-2.24-4.44-5.38-7.91-9.41-10.42-4.04-2.5-8.75-3.76-14.15-3.76s-10.07,1.25-14.12,3.76c-4.06,2.5-7.2,5.98-9.44,10.42-2.24,4.44-3.36,9.59-3.36,15.44s1.12,10.89,3.36,15.31c2.24,4.43,5.39,7.88,9.44,10.37,4.05,2.49,8.76,3.73,14.12,3.73s10.11-1.24,14.15-3.73c4.04-2.49,7.17-5.94,9.41-10.37,2.24-4.42,3.36-9.53,3.36-15.31s-1.12-11-3.36-15.44ZM326.79,51.21c-1.22,2.98-2.98,5.3-5.29,6.95-2.31,1.66-5.1,2.49-8.38,2.49s-6.07-.83-8.38-2.49c-2.31-1.66-4.07-3.97-5.29-6.93-1.22-2.96-1.82-6.4-1.82-10.31s.61-7.46,1.82-10.44c1.22-2.98,2.99-5.3,5.31-6.95,2.33-1.66,5.11-2.49,8.36-2.49s6.07.84,8.38,2.51c2.31,1.67,4.07,4,5.29,6.98,1.22,2.98,1.82,6.44,1.82,10.39s-.61,7.31-1.82,10.29Z"/>
        <path class="cls-1" d="M265.21.23h-9.34c-.53,0-.97.43-.97.97v10.31c0,.53-.43.97-.97.97h-7.64c-.53,0-.97.43-.97.97v7.38c0,.53.43.97.97.97h7.64c.53,0,.97.43.97.97v38.39c0,4.38,3.55,7.92,7.92,7.92h16.69c.53,0,.97-.43.97-.97v-7.42c0-.53-.43-.97-.97-.97h-10.31c-1.68,0-3.04-1.36-3.04-3.04V22.75c0-.53.43-.97.97-.97h12.38c.53,0,.97-.43.97-.97v-7.38c0-.53-.43-.97-.97-.97h-12.38c-.53,0-.97-.43-.97-.97V1.19c0-.53-.43-.97-.97-.97Z"/>
      </g>
      <g>
        <g>
          <path class="cls-1" d="M19.55,65.23h-11.18c-3,0-5.78-1.6-7.28-4.2h0c-3.11-5.38.78-12.11,6.99-12.11h4.14c1.21,6.03,3.76,11.57,7.32,16.31Z"/>
          <path class="cls-1" d="M96.15,32.61h-4.03c-1.23-6.02-3.76-11.55-7.32-16.3h11.07c3,0,5.77,1.6,7.27,4.2h0c3.11,5.38-.78,12.1-6.99,12.1Z"/>
        </g>
        <path class="cls-1" d="M92.94,40.77c0,22.51-18.25,40.76-40.76,40.76-13.34,0-25.18-6.41-32.63-16.3h43.08c6.22,0,10.1-6.73,6.99-12.11h0c-1.5-2.6-4.28-4.2-7.28-4.2H12.22c-.53-2.63-.82-5.36-.82-8.14C11.41,18.25,29.66,0,52.18,0c13.34,0,25.18,6.41,32.61,16.31h-43.11c-6.21,0-10.09,6.72-6.99,12.1h0c1.5,2.6,4.27,4.2,7.27,4.2h50.15c.53,2.63.82,5.36.82,8.16Z"/>
      </g>
    </g>
  </g>
</svg>